# xmcd
#
# Track frame offsets:
#	150
#	12415
#	26124
#	38574
#	53477
#	68469
#	84529
#	97609
#	111287
#	128091
#	143165
#
# Disc length: 2114 seconds
#
# Revision: 1
# Processed by: cddbd v1.5.1PL2 Copyright (c) Steve Scherf et al.
# Submitted via: audiograbber 1.83.01
#
DISCID=7f08400b
DTITLE=aaaaa - sssss
DYEAR=1200
DGENRE=aaaa
TTITLE0=Betty Boop - Bolja od tebe
TTITLE1=Aleksandar Kapris - Pre i posle nje
TTITLE2=Matteo Tromba - Mai dire mai
TTITLE3=Anja Masanovic - Hiljadu i jedan san
TTITLE4=Vladimir Tomovski - 4. dana
TTITLE5=Barbara Munjas - Ono sto drugi ne vide
TTITLE6=Marijana Sovran - Kisa
TTITLE7=Dunja - Zena na kolenima
TTITLE8=Milena Vucic - Dal ona zna
TTITLE9=Ivan Conovic - U magli ljubavi
TTITLE10=Danijel Beni and Lea Mijatovic - Kad si tu
EXTD=
EXTT0=
EXTT1=
EXTT2=
EXTT3=
EXTT4=
EXTT5=
EXTT6=
EXTT7=
EXTT8=
EXTT9=
EXTT10=
PLAYORDER=
